<svg width="27" height="29" viewBox="0 0 27 29" fill="none" xmlns="http://www.w3.org/2000/svg">
<path d="M19.327 19.802C19.7241 21.5466 20.1212 22.9558 20.4522 24.432C20.5184 24.7675 20.6507 25.1701 20.7169 25.5056C20.8493 26.1095 20.7169 26.7134 20.1212 27.0489C19.5255 27.3844 18.996 27.116 18.5989 26.6463C17.4075 25.2372 16.2161 23.761 15.0247 22.3519C14.76 22.0164 14.4952 21.748 14.0319 21.2782C13.6348 22.6874 13.2377 23.8952 12.8405 25.103C12.5096 26.1095 12.2448 27.1831 11.7815 28.1226C11.6491 28.5252 11.1196 28.9278 10.7887 28.9949C10.1268 29.062 9.92824 28.4581 9.86206 27.9213C9.72968 26.445 9.66349 24.9017 9.53111 23.4255C9.46493 22.4861 9.39874 21.5466 9.26636 20.3388C8.60448 20.6072 8.14116 20.7414 7.67784 20.9427C6.28789 21.4795 4.89793 22.0835 3.57417 22.6203C3.11085 22.8216 2.64753 22.9558 2.18421 23.0229C1.45614 23.1571 0.661883 23.1571 0.198565 22.419C-0.198565 21.8151 0 21.0098 0.79426 20.2717C2.11803 19.0639 3.44179 17.9903 4.83175 16.8496C5.22888 16.5141 5.626 16.1786 6.08932 15.776C4.69937 15.1049 3.30941 14.4339 2.05184 13.7629C0.728071 13.0919 0.330941 12.4209 0.595695 11.6157C0.860448 10.8105 1.58852 10.4079 2.97847 10.5421C4.5008 10.6763 6.02313 10.8776 7.54546 11.0118C8.20735 11.0789 8.86923 11.0118 9.72968 11.0118C9.5973 10.0053 9.5973 9.20004 9.46493 8.39483C9.20017 7.05281 8.86923 5.77788 8.60448 4.43586C8.53829 3.96616 8.4721 3.49645 8.4721 3.02674C8.53829 2.35573 8.80304 1.75182 9.53111 1.55052C10.193 1.34921 10.7225 1.61762 11.0534 2.15443C12.0463 3.42935 12.8405 4.70427 13.701 5.91209C14.0319 6.4489 14.3629 6.98571 15.0247 7.45541C15.2895 5.97919 15.4881 4.57007 15.7528 3.09384C15.8852 2.48993 15.9514 1.81892 16.1499 1.21501C16.4147 0.342695 16.9442 -0.0599117 17.6061 0.00718941C18.3342 0.141392 18.6651 0.678201 18.7975 1.34921C18.996 3.02674 19.1284 4.63717 19.2608 6.31469C19.327 6.7173 19.327 7.18701 19.327 7.79092C19.8565 7.58962 20.2536 7.38831 20.6507 7.18701C21.6436 6.6502 22.6364 6.11339 23.6292 5.64368C24.8206 5.03977 25.4825 5.03977 25.9458 5.71078C26.3429 6.31469 26.2106 6.98571 25.3501 7.99222C24.5559 8.93164 23.7616 9.87105 22.9673 10.8105C22.3716 11.4815 21.8421 12.2196 21.1803 13.0248C21.445 13.3603 21.7098 13.6958 22.0407 13.9642C23.4968 15.5746 25.0192 17.1851 26.4753 18.7955C26.9386 19.3323 27.2034 19.8691 26.8063 20.5401C26.4091 21.2111 25.8134 21.2111 25.1516 21.0769C23.2983 20.6743 21.445 20.2717 19.327 19.802Z" fill="black"/>
</svg>
