<svg width="14" height="14" viewBox="0 0 14 14" fill="none" xmlns="http://www.w3.org/2000/svg">
<path fill-rule="evenodd" clip-rule="evenodd" d="M2.41943 0.118456C2.6697 0.0400801 2.93041 0.000139817 3.19266 0C4.45195 0 5.38457 1.10847 5.38457 2.36267V5.17619C5.38457 6.43039 4.45123 7.53886 3.19266 7.53886C2.93041 7.53872 2.6697 7.49878 2.41943 7.4204L2.22774 7.36081C2.16234 7.34036 2.09768 7.31761 2.03389 7.29261C3.03424 9.32294 4.67733 10.966 6.70776 11.9663C6.68276 11.9025 6.66001 11.8378 6.63955 11.7724L6.57996 11.5807C6.50158 11.3305 6.46164 11.0698 6.4615 10.8075C6.4615 9.54831 7.57074 8.61573 8.82428 8.61573H11.6372C12.8915 8.61573 14 9.54903 14 10.8075C14 11.0696 13.9598 11.3302 13.8815 11.5807L13.8219 11.7724C13.473 12.8895 12.4758 13.6979 11.2826 13.9082C10.5592 14.0355 9.81867 14.0304 9.0971 13.8931C6.85766 13.4621 4.80027 12.3658 3.19371 10.7473C1.58715 9.12873 0.506115 7.06331 0.0918283 4.82082C-0.0306094 4.125 -0.0306094 3.41314 0.0918283 2.71732C0.302188 1.52414 1.11132 0.526952 2.22774 0.178044L2.41943 0.118456ZM1.16301 4.69518L1.15153 4.63057C1.05116 4.05917 1.05116 3.47466 1.15153 2.90326C1.30086 2.0633 1.85799 1.42148 2.54866 1.2061L2.74035 1.14651C2.88673 1.10053 3.03924 1.07705 3.19266 1.07688C3.75985 1.07688 4.30764 1.60096 4.30764 2.36267V5.17619C4.30764 5.93718 3.75985 6.46198 3.19266 6.46198C3.04046 6.46198 2.88825 6.43901 2.74035 6.39234L2.54866 6.33204C1.8745 6.12169 1.32814 5.50643 1.16373 4.69518H1.16301ZM9.36921 12.8471C9.93926 12.9476 10.5258 12.9476 11.0966 12.8471C11.9373 12.6985 12.5792 12.1414 12.7946 11.4508L12.8541 11.2591C12.9008 11.1112 12.9238 10.9597 12.9238 10.8068C12.9238 10.2397 12.3997 9.69189 11.6379 9.69189H8.82356C8.06253 9.69189 7.53771 10.2397 7.53771 10.8068C7.53771 10.9597 7.56069 11.1112 7.60735 11.2591L7.66694 11.4508C7.8773 12.1249 8.49259 12.6713 9.30387 12.8357L9.36777 12.8471H9.36921Z" fill="white"/>
</svg>
