<svg width="197" height="86" viewBox="0 0 197 86" fill="none" xmlns="http://www.w3.org/2000/svg">
<path id="Circle 2" d="M125.427 10.7803C148.036 13.9292 172.947 22.4287 187.365 35.4896C201.094 47.8922 200.709 64.2933 182.599 74.81C165.067 84.9723 138.841 86.0701 117.64 85.9968C95.3363 85.9073 72.6628 83.9136 51.6229 78.8611C33.3042 74.471 12.2738 67.4874 3.27195 54.4084C-2.93115 45.3459 0.234553 35.1792 8.1629 27.0094C28.6817 5.88164 71.22 -2.71612 104.709 0.742882C127.595 3.09763 147.449 12.0598 161.229 25.0952C162.535 26.3323 159.653 27.6335 158.423 26.4141C131.464 0.943385 83.7612 -3.30311 43.8476 9.7743C28.5702 14.7889 13.41 22.9309 6.29119 34.1905C-0.917635 45.5964 6.19509 56.5171 18.4795 63.9282C36.4499 74.764 61.4313 79.4882 84.401 81.8059C108.373 84.2456 134.071 84.9604 157.891 80.5011C168.606 78.4972 179.128 74.9855 186.537 68.8464C195.423 61.4482 195.97 51.3865 190.238 43.0375C179.111 26.7441 149.429 16.8553 125.723 13.2943L124.615 13.135C122.496 12.8473 123.307 10.4857 125.427 10.7803Z" fill="#FFA28E" fill-opacity="0.75"/>
</svg>
