<svg width="49" height="44" viewBox="0 0 49 44" fill="none" xmlns="http://www.w3.org/2000/svg">
<g id="Frame">
<g id="Group">
<path id="Vector" d="M9.59675 11.5501C7.55508 13.5668 6.33008 15.7668 6.33008 19.4335C6.33008 25.8501 11.4342 31.5335 18.5801 34.4668L20.4176 32.0835C13.6801 28.7835 12.2509 24.5668 11.8426 21.8168C12.8634 22.3668 14.2926 22.5501 15.7217 22.3668C19.3967 22.0001 22.2551 19.4335 22.2551 15.9501C22.2551 14.3001 21.4384 12.6501 20.2134 11.3668C18.7842 10.0835 17.1509 9.53346 15.1092 9.53346C12.8634 9.53346 10.8217 10.4501 9.59675 11.5501ZM30.0134 11.5501C27.9717 13.5668 26.7467 15.7668 26.7467 19.4335C26.7467 25.8501 31.8509 31.5335 38.9967 34.4668L40.8342 32.0835C34.0967 28.7835 32.6676 24.5668 32.2593 21.8168C33.2801 22.3668 34.7092 22.5501 36.1384 22.3668C39.8134 22.0001 42.6717 19.4335 42.6717 15.9501C42.6717 14.3001 41.8551 12.6501 40.6301 11.3668C39.4051 10.0835 37.5676 9.53346 35.5259 9.53346C33.2801 9.53346 31.2384 10.4501 30.0134 11.5501Z" fill="#FFB9A9"/>
</g>
</g>
</svg>
