<svg width="15" height="15" viewBox="0 0 15 15" fill="none" xmlns="http://www.w3.org/2000/svg">
<path fill-rule="evenodd" clip-rule="evenodd" d="M12.6449 0C12.0942 0 11.566 0.234917 11.1766 0.653073C10.7871 1.07123 10.5684 1.63837 10.5684 2.22973C10.5684 2.82109 10.7871 3.38823 11.1766 3.80639C11.566 4.22454 12.0942 4.45946 12.6449 4.45946C13.1957 4.45946 13.7238 4.22454 14.1133 3.80639C14.5027 3.38823 14.7215 2.82109 14.7215 2.22973C14.7215 1.63837 14.5027 1.07123 14.1133 0.653073C13.7238 0.234917 13.1957 0 12.6449 0ZM11.701 2.22973C11.701 2.09663 11.7254 1.96484 11.7729 1.84187C11.8203 1.71891 11.8898 1.60718 11.9775 1.51307C12.0651 1.41895 12.1692 1.3443 12.2837 1.29337C12.3982 1.24243 12.521 1.21622 12.6449 1.21622C12.7689 1.21622 12.8916 1.24243 13.0061 1.29337C13.1207 1.3443 13.2247 1.41895 13.3124 1.51307C13.4 1.60718 13.4695 1.71891 13.517 1.84187C13.5644 1.96484 13.5888 2.09663 13.5888 2.22973C13.5888 2.49853 13.4894 2.75632 13.3124 2.94639C13.1353 3.13646 12.8953 3.24324 12.6449 3.24324C12.3946 3.24324 12.1545 3.13646 11.9775 2.94639C11.8005 2.75632 11.701 2.49853 11.701 2.22973Z" fill="white"/>
<path d="M6.8633 0.811035C5.95112 0.811035 5.23376 0.811035 4.65232 0.859684C4.0588 0.908332 3.56495 1.00887 3.10433 1.23509C2.34547 1.6091 1.70313 2.21014 1.2543 2.96617C1.13004 3.17656 1.02582 3.39985 0.943196 3.63266C0.6706 4.39076 0.541475 5.3913 0.354207 6.8386L0.339105 6.9586C0.176755 8.20725 0.0506509 9.18347 0.01214 9.96995C-0.0263708 10.7678 0.0204462 11.4335 0.24396 12.044C0.609504 13.0424 1.28452 13.8749 2.15516 14.401C2.68827 14.7229 3.29538 14.8648 4.0369 14.9329C4.76785 15.0002 5.68532 15.0002 6.85952 15.0002H8.14019C9.3144 15.0002 10.2319 15.0002 10.9628 14.9329C11.7043 14.864 12.3114 14.7221 12.8446 14.401C13.7149 13.8747 14.3896 13.0423 14.755 12.044C14.9793 11.4335 15.0268 10.7678 14.9876 9.96995C14.9498 9.18347 14.823 8.20725 14.6614 6.9586L14.6576 6.92941C14.6369 6.76964 14.5579 6.62525 14.438 6.52801C14.3181 6.43077 14.1672 6.38864 14.0184 6.4109C13.8696 6.43316 13.7351 6.51797 13.6446 6.64669C13.554 6.7754 13.5148 6.93748 13.5355 7.09725C13.7016 8.38076 13.8209 9.30509 13.8564 10.0332C13.8919 10.7548 13.8398 11.221 13.7016 11.5989C13.4316 12.3368 12.9329 12.9522 12.2895 13.3413C11.9596 13.54 11.5367 13.6591 10.8662 13.7208C10.1896 13.7832 9.32044 13.784 8.11301 13.784H6.8867C5.68003 13.784 4.81014 13.784 4.13431 13.7208C3.46301 13.6591 3.0409 13.54 2.71092 13.3413C2.06757 12.9522 1.56885 12.3368 1.29886 11.5989C1.15991 11.221 1.10857 10.7556 1.1433 10.034C1.17879 9.30509 1.2981 8.37995 1.46423 7.09725C1.58278 6.18104 1.67113 5.50806 1.76778 4.9859C2.96766 6.27428 3.91382 7.28536 4.75275 7.97293C5.62793 8.68968 6.45251 9.11131 7.40849 9.11131C8.85302 9.11131 10.0182 8.14401 11.5291 6.59455C11.5829 6.53939 11.6261 6.4734 11.6561 6.40034C11.6862 6.32728 11.7025 6.24858 11.7043 6.16873C11.706 6.08888 11.693 6.00946 11.6662 5.93498C11.6393 5.86051 11.599 5.79245 11.5476 5.73468C11.4963 5.67692 11.4348 5.63058 11.3668 5.59832C11.2987 5.56606 11.2254 5.54851 11.1511 5.54667C11.0767 5.54482 11.0027 5.55872 10.9334 5.58757C10.864 5.61643 10.8006 5.65966 10.7469 5.71482C9.20566 7.2959 8.34483 7.89509 7.40849 7.89509C6.79987 7.89509 6.2139 7.64049 5.43915 7.00644C4.65232 6.36103 3.73939 5.38239 2.46928 4.0186L2.46173 4.01131L2.15893 3.70806C2.49182 3.10872 2.98633 2.63202 3.57704 2.34104C3.86625 2.19833 4.21284 2.11482 4.73916 2.07185C5.27227 2.02806 5.94583 2.02725 6.8867 2.02725H8.11301C8.26321 2.02725 8.40726 1.96318 8.51347 1.84914C8.61968 1.7351 8.67935 1.58042 8.67935 1.41914C8.67935 1.25786 8.61968 1.10319 8.51347 0.989146C8.40726 0.875103 8.26321 0.811035 8.11301 0.811035H6.8633Z" fill="white"/>
</svg>
