<svg width="181" height="65" viewBox="0 0 181 65" fill="none" xmlns="http://www.w3.org/2000/svg">
<g id="Group 1707483984">
<path id="Vector" d="M65.9732 31.5933C71.346 27.7905 76.6578 24.0297 82.1684 20.1282C79.3978 19.3817 76.7307 19.3768 74.2776 18.3371C75.9124 17.2136 77.8368 17.0427 79.7556 16.1698C78.9206 15.9305 78.2587 15.7446 77.5992 15.5504C77.2767 15.4554 76.852 15.4355 76.8104 15.0054C76.765 14.5367 77.2269 14.497 77.5227 14.3907C81.4475 12.9796 85.3773 11.5826 89.3081 10.1886C90.9 9.624 92.4873 9.04317 94.0953 8.52857C95.5403 8.06614 96.7372 7.20241 97.9318 6.31868C98.1261 6.17492 98.3437 6.05605 98.5153 5.88909C102.389 2.11957 107.458 1.22242 112.41 0.0418326C112.869 -0.0678021 113.206 0.02533 113.442 0.473525C115.454 4.30108 117.475 8.1238 119.489 11.9497C119.602 12.1634 119.704 12.3902 119.572 12.6617C119.13 13.0203 118.81 12.627 118.492 12.4213C116 10.8089 113.52 9.17817 111.033 7.55842C110.78 7.39397 110.563 7.14055 110.096 7.17137C108.859 9.53105 107.59 11.9429 106.329 14.3581C105.464 16.0137 104.584 17.662 103.76 19.3381C103.441 19.9887 102.992 20.33 102.3 20.5051C98.5615 21.4522 94.8348 22.4477 91.0945 23.3887C90.306 23.587 89.8814 23.8591 89.821 24.8002C89.6641 27.2486 89.3737 29.6892 89.0978 32.1285C89.0278 32.7471 89.3678 33.0004 89.7991 33.2574C90.7771 33.8402 91.753 34.4266 92.7226 35.0233C92.9807 35.1822 93.3169 35.3496 93.1802 35.7355C93.0736 36.0368 92.7543 36.0615 92.4751 36.062C90.3374 36.0665 88.1997 36.0566 86.0621 36.0691C85.319 36.0734 85.1568 35.5832 85.0603 34.9977C84.6329 32.4047 84.1979 29.8129 83.7769 27.2189C83.7213 26.876 83.6976 26.533 83.447 26.1982C82.791 26.2471 82.2276 26.5927 81.6428 26.8528C75.0897 29.7683 68.5406 32.693 61.9888 35.6116C61.6896 35.7449 61.3291 36.0285 61.0896 35.5835C60.8639 35.1641 61.267 34.9559 61.5296 34.7656C62.9831 33.712 64.4498 32.6769 65.9732 31.5933ZM91.1656 17.2697C94.6862 17.8895 98.2068 18.5093 101.991 19.1755C99.9026 15.71 97.9729 12.5226 96.062 9.32388C95.7511 8.80329 95.382 8.99835 94.9952 9.13465C90.7417 10.6335 86.4878 12.1313 82.2365 13.6362C81.1944 14.005 80.161 14.3985 79.1236 14.7807C83.0734 15.8822 87.0345 16.5435 91.1656 17.2697ZM108.502 8.10856C109.686 5.89622 110.79 3.64635 111.862 1.17838C109.26 1.70179 106.887 2.36917 104.509 3.01691C104.059 3.1396 104.06 3.42957 104.047 3.80134C103.973 5.97689 103.803 8.15174 103.805 10.3267C103.808 12.5944 103.412 14.8496 103.769 17.192C105.321 14.2084 106.874 11.2248 108.502 8.10856ZM93.5771 18.6484C90.9894 18.1984 88.4017 17.7484 85.6356 17.2673C86.0294 19.3197 86.3743 21.1473 86.7334 22.972C86.8508 23.5687 87.2502 23.4788 87.6917 23.3572C89.5184 22.8541 91.3496 22.3671 93.1814 21.8826C95.5348 21.2602 97.8902 20.6459 100.245 20.0281C100.239 19.9624 100.233 19.8967 100.228 19.831C98.0687 19.4501 95.9098 19.0691 93.5771 18.6484ZM100.638 15.084C101.243 16.0053 101.684 17.0408 102.542 17.9942C102.726 13.2326 102.902 8.65689 103.078 4.08462C102.506 4.02631 102.265 4.31704 101.997 4.50791C100.481 5.59127 99.0062 6.73646 97.4594 7.77348C96.7233 8.26699 96.7347 8.70192 97.1566 9.37493C98.3136 11.2208 99.4291 13.0928 100.638 15.084ZM81.8168 25.7742C82.3223 25.443 83.2095 25.4574 83.3111 24.8008C83.5143 23.4875 83.2131 22.1763 82.9643 20.7112C77.3016 24.7115 71.8068 28.593 66.3121 32.4746C66.3404 32.5241 66.3687 32.5737 66.397 32.6232C71.4893 30.3621 76.5817 28.1011 81.8168 25.7742ZM116.69 10.1514C117.041 10.3656 117.391 10.5798 117.963 10.9295C116.221 7.67669 114.612 4.67285 112.906 1.48717C112.023 3.09422 111.335 4.57542 110.675 6.14701C112.673 7.47628 114.621 8.77263 116.69 10.1514ZM88.708 27.5208C88.6133 26.3944 89.0509 25.2804 88.8719 24.1457C87.2577 24.2252 86.9024 24.4922 86.8123 25.7709C86.6397 28.218 86.4942 30.6671 86.3566 33.1165C86.3388 33.4337 86.1997 33.8007 86.5061 34.0806C88.1667 32.9869 88.2096 32.8679 88.3277 31.0032C88.3974 29.9025 88.5642 28.808 88.708 27.5208ZM83.8525 17.8693C83.9522 17.6205 84.1511 17.396 84.0339 17.0547C81.5727 16.0092 79.4961 17.4914 77.2707 18.1284C78.7395 18.5213 80.2178 18.7626 81.6784 19.085C82.7194 19.3147 83.4826 19.1503 83.8525 17.8693ZM85.7473 23.8594C85.7716 21.9974 85.1737 20.24 84.9205 18.208C83.1296 20.3355 84.4743 22.4012 84.3168 24.456C84.9405 24.3803 85.312 24.229 85.7473 23.8594ZM84.8246 25.4876C84.4449 25.7399 84.602 26.0896 84.65 26.4248C84.8788 28.0208 85.1027 29.6175 85.3284 31.2139C85.3794 31.2131 85.4305 31.2124 85.4816 31.2116C85.6256 29.1974 85.7696 27.1832 85.9231 25.0356C85.5072 25.1985 85.2286 25.3075 84.8246 25.4876ZM90.3594 35.0868C90.5136 35.0625 90.6983 35.1613 90.8151 34.9757C88.6954 33.5015 88.3309 33.5052 87.1996 35.0925C88.2437 35.0925 89.2304 35.0925 90.3594 35.0868Z" fill="white"/>
<path id="Vector_2" d="M172.484 57.7335C172.688 57.2063 172.856 56.7519 173.035 56.3021C173.17 55.9618 173.373 55.7166 173.789 55.7037C174.254 55.6893 174.478 55.9534 174.624 56.3374C175.167 57.7597 175.706 59.1831 176.251 60.6046C176.322 60.7892 176.416 60.9649 176.588 61.3388C177.228 59.6214 177.823 58.0902 178.365 56.5403C178.667 55.6778 179.195 55.5464 180.068 55.895C179.357 57.9404 178.656 59.9576 177.953 61.9742C177.817 62.3663 177.689 62.7628 177.526 63.1442C177.342 63.5764 177.248 64.1207 176.615 64.1292C175.975 64.1377 175.866 63.6062 175.7 63.1608C175.11 61.5724 174.534 59.979 173.903 58.2516C173.099 59.769 172.612 61.2942 172.059 62.791C171.939 63.1145 171.867 63.4741 171.676 63.7486C171.282 64.3128 170.668 64.3137 170.437 63.731C169.425 61.168 168.406 58.6017 167.643 55.9107C168.521 55.5326 169.045 55.6369 169.367 56.569C169.893 58.0956 170.314 59.6669 171.134 61.3565C171.624 60.0382 172.038 58.9232 172.484 57.7335Z" fill="white"/>
<path id="Vector_3" d="M56.3941 57.3599C56.88 58.6648 57.3418 59.8919 57.8352 61.203C58.32 60.8741 58.3219 60.3965 58.4663 60.0147C58.8945 58.8825 59.3285 57.7498 59.6851 56.5938C59.9531 55.7249 60.4536 55.5415 61.2238 55.8137C61.4423 56.2462 61.2035 56.5897 61.082 56.9336C60.345 59.0204 59.5871 61.0997 58.8475 63.1856C58.693 63.6211 58.563 64.0707 58.0139 64.119C57.3612 64.1765 57.2404 63.626 57.0761 63.1891C56.4715 61.5813 55.8935 59.9634 55.0681 58.3514C54.4989 59.896 53.9328 61.4418 53.3586 62.9845C53.1802 63.4637 53.0737 64.0764 52.4378 64.1045C51.7081 64.1368 51.6382 63.4581 51.4551 62.9542C50.7815 61.1013 50.1086 59.248 49.4611 57.3858C49.2944 56.9064 49.0312 56.4396 49.0853 55.8692C49.8179 55.551 50.3287 55.6802 50.6151 56.4938C51.0514 57.7332 51.5217 58.9605 51.981 60.1917C52.0977 60.5048 52.2273 60.8131 52.4585 61.3937C53.0819 59.7552 53.5781 58.3674 54.143 57.0084C54.3604 56.4853 54.3465 55.6726 55.2377 55.7208C56.0185 55.7631 56.0047 56.4995 56.2675 56.9886C56.3159 57.0787 56.3365 57.1838 56.3941 57.3599Z" fill="white"/>
<path id="Vector_4" d="M140.961 55.7754C142.407 55.7923 143.75 55.729 145.093 55.8884C146.388 56.0422 147.187 56.596 147.401 57.593C147.648 58.7498 147.191 59.6353 146.004 60.3059C145.887 60.3723 145.777 60.4536 145.622 60.5557C145.964 61.8525 147.151 62.6702 147.561 63.9824C146.651 64.2781 145.978 64.1412 145.526 63.2879C145.381 63.0149 145.106 62.8001 145.004 62.5174C144.227 60.3491 142.461 60.4737 140.68 60.5795C140.138 60.6117 139.966 60.8824 139.976 61.379C139.987 62.0023 139.965 62.6262 139.975 63.2496C139.982 63.7636 139.868 64.1301 139.243 64.1278C138.679 64.1258 138.417 63.8778 138.418 63.3167C138.422 61.0996 138.428 58.8825 138.419 56.6654C138.416 56.0417 138.726 55.7912 139.307 55.7887C139.824 55.7866 140.342 55.7804 140.961 55.7754ZM140.083 57.473C140.031 58.1361 139.544 59.0377 140.775 59.0837C142.151 59.135 143.532 59.0872 144.91 59.0641C145.466 59.0548 145.844 58.7763 145.85 58.1837C145.855 57.6011 145.487 57.2699 144.941 57.2557C143.362 57.2148 141.779 57.0621 140.083 57.473Z" fill="white"/>
<path id="Vector_5" d="M152.37 59.5911C152.615 57.6009 153.72 56.4572 155.499 55.9044C157.629 55.2425 159.665 55.4018 161.498 56.7463C163.618 58.3009 163.679 61.3347 161.67 63.0283C159.652 64.7291 156.275 64.883 154.141 63.3316C152.917 62.4419 152.292 61.2186 152.37 59.5911ZM160.289 62.2239C162.036 60.6881 161.985 58.7992 160.128 57.5813C158.9 56.7756 157.558 56.6432 156.175 57.1366C154.708 57.6602 153.88 58.7394 153.916 60.0278C153.954 61.3633 154.874 62.4569 156.394 62.8533C157.71 63.1968 158.99 63.0644 160.289 62.2239Z" fill="white"/>
<path id="Vector_6" d="M103.769 61.2346C103.771 62.7803 103.771 62.7806 105.239 62.7818C106.789 62.7832 108.339 62.7761 109.888 62.7899C110.349 62.794 110.924 62.6749 110.939 63.4312C110.954 64.1469 110.45 64.1494 109.944 64.1493C107.706 64.1485 105.468 64.1346 103.23 64.1589C102.53 64.1665 102.224 63.9016 102.231 63.1903C102.25 61.0457 102.251 58.9008 102.24 56.7561C102.236 55.962 102.576 55.6811 103.373 55.7001C105.369 55.7478 107.367 55.7055 109.364 55.7302C109.866 55.7364 110.58 55.5367 110.556 56.441C110.534 57.2641 109.881 57.0742 109.402 57.0803C107.853 57.0999 106.303 57.1209 104.754 57.0792C103.98 57.0584 103.74 57.3509 103.745 58.1099C103.751 58.8554 104.048 59.0772 104.739 59.0487C105.633 59.0118 106.529 59.0407 107.424 59.0461C107.829 59.0486 108.205 59.1069 108.198 59.6448C108.191 60.1686 107.891 60.3744 107.4 60.375C106.47 60.376 105.541 60.3939 104.611 60.3842C104.081 60.3786 103.733 60.5361 103.769 61.2346Z" fill="white"/>
<path id="Vector_7" d="M31.1212 60.3866C29.7814 60.4876 30.3671 61.4484 30.2829 62.0584C30.1843 62.773 30.7239 62.7831 31.2379 62.7819C32.9958 62.7777 34.7537 62.7781 36.5115 62.7899C36.9504 62.7928 37.4704 62.7286 37.4425 63.4332C37.4188 64.033 37.0377 64.1536 36.5272 64.1518C34.2179 64.1435 31.9085 64.1411 29.5992 64.1538C28.9958 64.1571 28.7136 63.9117 28.7168 63.2934C28.7283 61.0774 28.7318 58.8612 28.7209 56.6452C28.7177 55.9984 28.9706 55.7012 29.64 55.7081C31.8112 55.7307 33.9828 55.7163 36.1541 55.7338C36.5517 55.737 37.0496 55.6939 37.0404 56.324C37.032 56.8945 36.6872 57.0856 36.1537 57.0828C34.4993 57.0743 32.8444 57.1078 31.1906 57.0776C30.4598 57.0642 30.2348 57.3671 30.2389 58.0683C30.2429 58.7633 30.4568 59.0869 31.1934 59.0558C32.0877 59.0179 32.9852 59.0563 33.8813 59.0664C34.3354 59.0715 34.7182 59.1689 34.6876 59.7544C34.661 60.2641 34.3185 60.3667 33.9031 60.37C33.007 60.3772 32.1108 60.3803 31.1212 60.3866Z" fill="white"/>
<path id="Vector_8" d="M22.356 64.1377C21.6651 64.1616 21.4899 63.805 21.4914 63.2812C21.4934 62.5888 21.4732 61.8961 21.4921 61.2043C21.509 60.5857 21.2232 60.3338 20.6233 60.3257C19.2804 60.3075 17.9361 60.293 16.5956 60.2187C15.7528 60.172 15.5062 60.543 15.5575 61.3264C15.6026 62.0154 15.5552 62.7103 15.5541 63.4026C15.5533 63.928 15.2872 64.1436 14.777 64.1324C14.2679 64.1213 14.0176 63.8899 14.0195 63.3705C14.0279 61.1205 14.0341 58.8705 14.0325 56.6204C14.0321 56.0508 14.3 55.7984 14.8581 55.8234C15.3788 55.8466 15.5367 56.1336 15.5737 56.6316C15.7422 58.8996 15.7547 58.898 18.0315 58.8946C18.8929 58.8934 19.7548 58.8808 20.6157 58.9027C21.2284 58.9183 21.5027 58.6533 21.4865 58.0383C21.4746 57.5891 21.5023 57.1387 21.5138 56.6889C21.5269 56.1753 21.7019 55.822 22.2959 55.8203C22.8949 55.8186 23.0434 56.1458 23.0399 56.6836C23.0254 58.8644 23.0359 61.0454 23.0321 63.2263C23.0314 63.647 23.0473 64.0932 22.356 64.1377Z" fill="white"/>
<path id="Vector_9" d="M67.7188 63.6038C67.5253 64.2505 67.0735 64.1679 66.6778 64.0949C66.1815 64.0033 66.2032 63.5637 66.2033 63.1856C66.2036 61.0749 66.2109 58.9642 66.2224 56.8536C66.2253 56.3057 66.2775 55.7926 67.0309 55.8029C67.8338 55.8138 67.7357 56.3851 67.7425 56.9013C67.7708 59.0513 67.4361 58.8751 69.7516 58.8905C70.716 58.8969 71.6824 58.8573 72.6441 58.9092C73.464 58.9535 73.7679 58.5539 73.7901 57.8111C73.8034 57.3615 73.8179 56.9118 73.8188 56.4621C73.8196 56.0348 74.0274 55.8207 74.4459 55.8176C74.8693 55.8145 75.1966 55.9332 75.196 56.4496C75.1929 58.8024 75.1938 61.1552 75.1902 63.508C75.1895 64.0155 74.8666 64.13 74.4344 64.1353C73.9335 64.1415 73.7786 63.8792 73.7896 63.4178C73.8086 62.6224 73.7849 61.8257 73.815 61.0309C73.8351 60.4988 73.6202 60.2788 73.0947 60.2779C71.5455 60.2755 69.9964 60.255 68.4473 60.2361C67.9107 60.2296 67.7299 60.5071 67.7398 61.017C67.7559 61.847 67.7356 62.6776 67.7188 63.6038Z" fill="white"/>
<path id="Vector_10" d="M130.133 64.1251C127.767 64.655 125.619 64.4731 123.956 62.6254C122.242 60.7203 122.628 58.0225 124.729 56.5703C127.167 54.8854 130.985 55.3179 132.655 57.5104C132.183 58.2151 131.716 58.4187 130.935 57.7965C129.689 56.804 128.254 56.5943 126.74 57.1387C125.122 57.7205 124.298 58.884 124.471 60.316C124.623 61.5734 125.955 62.7815 127.435 62.967C128.871 63.147 130.204 62.8918 131.247 61.8072C131.745 61.2886 132.171 61.2782 132.639 61.7766C133.194 62.3687 132.586 62.6421 132.267 62.9277C131.672 63.46 130.986 63.8634 130.133 64.1251Z" fill="white"/>
<path id="Vector_11" d="M94.9928 55.7148C95.5417 55.7249 95.9895 55.7256 96.4363 55.7474C96.8218 55.7661 97.1037 55.9121 97.0863 56.3703C97.0691 56.8253 96.8563 57.0785 96.3871 57.0804C95.7675 57.083 95.1445 57.1269 94.529 57.0774C93.6962 57.0104 93.3579 57.2952 93.3893 58.1807C93.4468 59.8042 93.4041 61.4313 93.4007 63.0568C93.3996 63.5875 93.4351 64.1285 92.6518 64.1392C91.8849 64.1497 91.8614 63.6447 91.8636 63.0926C91.8704 61.4325 91.8484 59.7716 91.891 58.1125C91.9104 57.3555 91.6561 57.0265 90.8809 57.0857C90.2992 57.1301 89.7111 57.0901 89.1258 57.0898C88.6545 57.0895 88.1969 57.0739 88.2032 56.415C88.2091 55.7962 88.6013 55.7061 89.1073 55.7091C91.0352 55.7203 92.9632 55.7142 94.9928 55.7148Z" fill="white"/>
<path id="Vector_12" d="M5.20492 63.5949C4.95806 64.2539 4.48873 64.1909 4.05671 64.0647C3.63861 63.9425 3.67868 63.5324 3.6778 63.1906C3.67347 61.4954 3.64937 59.7994 3.69129 58.1051C3.71034 57.3354 3.43618 57.0371 2.6724 57.0883C2.02132 57.1318 1.36451 57.0864 0.71022 57.0851C0.253244 57.0841 -0.000694875 56.8814 1.42817e-06 56.4011C0.000690073 55.9267 0.23771 55.7139 0.703668 55.7148C3.18311 55.7199 5.66256 55.7201 8.142 55.7216C8.60932 55.7219 8.83873 55.9503 8.82499 56.4247C8.81115 56.9029 8.5529 57.0949 8.09668 57.0912C7.44244 57.0859 6.78664 57.1232 6.13417 57.0899C5.46455 57.0556 5.21961 57.3267 5.22819 57.9994C5.25156 59.8325 5.22567 61.6664 5.20492 63.5949Z" fill="white"/>
<path id="Vector_13" d="M81.4814 63.9237C81.1513 61.3686 81.3348 58.8769 81.3278 56.3878C81.3263 55.8388 81.6715 55.7009 82.1565 55.7159C82.6162 55.7301 82.8614 55.9139 82.8608 56.3997C82.8575 58.7563 82.8969 61.1136 82.845 63.469C82.8236 64.4414 82.111 64.1396 81.4814 63.9237Z" fill="white"/>
</g>
</svg>
