<svg width="24" height="24" viewBox="0 0 24 24" fill="none" xmlns="http://www.w3.org/2000/svg">
<g id="vuesax/bold/quote-down">
<g id="quote-down">
<path id="Vector" d="M8.08987 12.3699H3.39987C3.47987 17.0399 4.39987 17.8099 7.26987 19.5099C7.59987 19.7099 7.70987 20.1299 7.50987 20.4699C7.30987 20.7999 6.88987 20.9099 6.54987 20.7099C3.16986 18.7099 1.98987 17.4899 1.98987 11.6699V6.27994C1.98987 4.56994 3.37987 3.18994 5.07987 3.18994H8.07987C9.83987 3.18994 11.1699 4.51994 11.1699 6.27994V9.27994C11.1799 11.0399 9.84987 12.3699 8.08987 12.3699Z" fill="url(#paint0_linear_702_292)"/>
<path id="Vector_2" d="M18.91 12.3699H14.22C14.3 17.0399 15.22 17.8099 18.09 19.5099C18.42 19.7099 18.53 20.1299 18.33 20.4699C18.13 20.7999 17.71 20.9099 17.37 20.7099C13.99 18.7099 12.81 17.4899 12.81 11.6699V6.27994C12.81 4.56994 14.2 3.18994 15.9 3.18994H18.9C20.67 3.18994 22 4.51994 22 6.27994V9.27994C22 11.0399 20.67 12.3699 18.91 12.3699Z" fill="url(#paint1_linear_702_292)"/>
</g>
</g>
<defs>
<linearGradient id="paint0_linear_702_292" x1="6.57989" y1="3.18994" x2="6.57989" y2="20.81" gradientUnits="userSpaceOnUse">
<stop/>
<stop offset="1" stop-opacity="0"/>
</linearGradient>
<linearGradient id="paint1_linear_702_292" x1="17.405" y1="3.18994" x2="17.405" y2="20.81" gradientUnits="userSpaceOnUse">
<stop/>
<stop offset="1" stop-opacity="0"/>
</linearGradient>
</defs>
</svg>
